# xmcd
#
# Track frame offsets:
#	150
#	14438
#	33507
#	53850
#	78623
#	97779
#	114221
#	132750
#	150667
#	165880
#
# Disc length: 2467 seconds
# Revision: 0
# Processed by: cddbd v1.5.2PL0 Copyright (c) Steve Scherf et al.
# Submitted via: dBpowerAMP V12.0
#
DISCID=6909a10a
DTITLE=D.L. Duncan - D.L. Duncan
DYEAR=2015
DGENRE=Blues
TTITLE0=I Ain't The Sharpest Marble
TTITLE1=Dickerson Road
TTITLE2=You Just Don't Never Know
TTITLE3=Your Own Best Friend
TTITLE4=I Know A Good Thing
TTITLE5=Sending Me Angels
TTITLE6=Orange Beach Blues
TTITLE7=St. Valentine's Day Blues
TTITLE8=Sweet Magnolia Love
TTITLE9=All I Have To Offer You Is Love
EXTD=
EXTT0=
EXTT1=
EXTT2=
EXTT3=
EXTT4=
EXTT5=
EXTT6=
EXTT7=
EXTT8=
EXTT9=
PLAYORDER=
